<?xml version="1.0" encoding="UTF-8"?>
<svg enable-background="new 0 0 353.209 182.186" version="1.1" viewBox="0 0 348.52325 182.93701" xmlns="http://www.w3.org/2000/svg">
 <path d="m332.15 83.348c6.3241 8.2256 10.82 15.978 15.376 23.736-53.998-1.0961-92.526 4.7831-110.52 14.859-13.285 11.763-34.343 13.624-50.994 12.999-38.862 7.6582-81.578 30.094-114.99 46.994-24.443-36.424-49.299-77.799-69.991-111.99-0.42812-1.881 4.2548-5.2593 5.9884-5.3847l-0.4884 2.8847c25.526 38.356 43.203 68.798 68.492 105.49 32.294-15.822 70.38-41.351 116.81-46.739 6.7854-10.786 28.906-11.289 33.381-8.4305 36.984-23.1 80.788-16.728 110.77-17.821-3.6562-10.902-3.9153-15.517-4.557-26.724" fill="none" stroke="#000" stroke-width="2"/>
 <path d="m6.5275 67.452c0.844-4.938 2.248-15.268 7.395-17.6" fill="none" stroke="#000" stroke-linecap="round" stroke-width="2"/>
 <path d="m13.923 49.854c31.278-20.756 75.054-53.726 111.45-23.112" fill="none" stroke="#000" stroke-linecap="round" stroke-width="2"/>
 <path d="m125.37 26.742c21.53-35.956 68.59-18.112 102.97-25.742 33.81 23.763 70.05 47.677 103.09 72.227" fill="none" stroke="#000" stroke-linecap="round" stroke-width="2"/>
 <path d="m208.02 116.35c6.7024-33.432 83.107-36.161 123.41-43.122" fill="none" stroke="#000" stroke-linecap="round" stroke-width="2"/>
 <path d="m125.37 26.742c26.053 23.891 56.478 65.909 82.647 89.607" fill="none" stroke="#000" stroke-linecap="round" stroke-width="2"/>
 <path d="m13.923 49.854c22.017 30.93 40.332 64.812 62.092 96.088" fill="none" stroke="#000" stroke-linecap="round" stroke-width="2"/>
 <path d="m76.016 145.94c39.787-18.125 89.682-54.161 132-29.593" fill="none" stroke="#000" stroke-linecap="round" stroke-width="2"/>
 <path d="m76.016 145.94c-0.556 5.836-0.093 21.195-0.996 27" fill="none" stroke="#000" stroke-linecap="round" stroke-width="2"/>
</svg>
